# xmcd
#
# Track frame offsets:
#	150
#	15435
#	29534
#	40851
#	53640
#	69605
#	82542
#	96653
#	111740
#	126526
#	138170
#	150367
#	162239
#	175649
#	187914
#	201819
#	214389
#	227208
#	247790
#	260884
#	276179
#	290298
#	305670
#
# Disc length: 4236 seconds
#
# Revision: 0
# Processed by: cddbd v1.5.2PL0 Copyright (c) Steve Scherf et al.
# Submitted via: audiograbber 1.80
#
DISCID=48108a17
DTITLE=Various Artist - Murder Songs from the dark side of the soul
DYEAR=1900
DGENRE=
TTITLE0=Jimmie Rodgers: Gambling Bar Room Blues
TTITLE1=Ethel Waters: Frankie and Johnny
TTITLE2=Sonny Boy Williamson: Your Funeral my Trial
TTITLE3=Lord Executor: Seven Skeletons
TTITLE4=Billy Boy Arnold: Prisoner´s Plea
TTITLE5=Wilmouth Houdini  and his Humming Birds: Bandsman Shooting Case
TTITLE6=Roosevelt Sykes: 44 Blues
TTITLE7=Memphis Minnie: Biting Bug Blues
TTITLE8=Bessie Smith: Send me to the electric Chair
TTITLE9=Wade Mainer and Zeke Morris: Down in the Willow
TTITLE10=Blind Boy Fuller: Pistol Slapper Blues
TTITLE11=Aunt Idy Harper and the Poor Creek Girls: Poor Naomi Wise
TTITLE12=Honeyboy: Bloodstains on the Wall
TTITLE13=Little Walter: Boom boom, out go the lights
TTITLE14=Louis Armstrong and Louis Jordan: You Rascal you
TTITLE15=Champion Jack Dupree: I´m going down with you
TTITLE16=The Stanley Brothers: Pretty Polly
TTITLE17=Archibald: Stack-A-Lee
TTITLE18=Henry Thomas Ragtime Texas: Bob McKinney
TTITLE19=J.B. Grayson and Henry Whitter: Rose Conley
TTITLE20=Billie Holiday: Strange Fruit
TTITLE21=Lonnie Johnson: Got the Blues for Murder only
TTITLE22=The Delmore Brothers: The Fugitive´s Lament
EXTD=
EXTT0=
EXTT1=
EXTT2=
EXTT3=
EXTT4=
EXTT5=
EXTT6=
EXTT7=
EXTT8=
EXTT9=
EXTT10=
EXTT11=
EXTT12=
EXTT13=
EXTT14=
EXTT15=
EXTT16=
EXTT17=
EXTT18=
EXTT19=
EXTT20=
EXTT21=
EXTT22=
PLAYORDER=
